<?xml version="1.0" encoding="UTF-8" standalone="no"?>
<svg
   viewBox="0 0 640 640"
   version="1.1"
   id="svg8"
   sodipodi:docname="rmvlmsg.svg"
   inkscape:version="1.1.2 (0a00cf5339, 2022-02-04)"
   xmlns:inkscape="http://www.inkscape.org/namespaces/inkscape"
   xmlns:sodipodi="http://sodipodi.sourceforge.net/DTD/sodipodi-0.dtd"
   xmlns="http://www.w3.org/2000/svg"
   xmlns:svg="http://www.w3.org/2000/svg">
  <defs
     id="defs12" />
  <sodipodi:namedview
     id="namedview10"
     pagecolor="#ffffff"
     bordercolor="#666666"
     borderopacity="1.0"
     inkscape:pageshadow="2"
     inkscape:pageopacity="0.0"
     inkscape:pagecheckerboard="0"
     showgrid="false"
     inkscape:zoom="1.2320944"
     inkscape:cx="285.6924"
     inkscape:cy="234.96576"
     inkscape:window-width="1858"
     inkscape:window-height="1010"
     inkscape:window-x="62"
     inkscape:window-y="34"
     inkscape:window-maximized="1"
     inkscape:current-layer="g6">
    <inkscape:grid
       type="xygrid"
       id="grid39" />
  </sodipodi:namedview>
  <g
     transform="translate(58, 0)"
     id="g6">
    <path
       fill="#708090"
       d="M259.1 73.5C262.1 58.7 275.2 48 290.4 48L350.2 48C365.4 48 378.5 58.7 381.5 73.5L396 143.5C410.1 149.5 423.3 157.2 435.3 166.3L503.1 143.8C517.5 139 533.3 145 540.9 158.2L570.8 210C578.4 223.2 575.7 239.8 564.3 249.9L511 297.3C511.9 304.7 512.3 312.3 512.3 320C512.3 327.7 511.8 335.3 511 342.7L564.4 390.2C575.8 400.3 578.4 417 570.9 430.1L541 481.9C533.4 495 517.6 501.1 503.2 496.3L435.4 473.8C423.3 482.9 410.1 490.5 396.1 496.6L381.7 566.5C378.6 581.4 365.5 592 350.4 592L290.6 592C275.4 592 262.3 581.3 259.3 566.5L244.9 496.6C230.8 490.6 217.7 482.9 205.6 473.8L137.5 496.3C123.1 501.1 107.3 495.1 99.7 481.9L69.8 430.1C62.2 416.9 64.9 400.3 76.3 390.2L129.7 342.7C128.8 335.3 128.4 327.7 128.4 320C128.4 312.3 128.9 304.7 129.7 297.3L76.3 249.8C64.9 239.7 62.3 223 69.8 209.9L99.7 158.1C107.3 144.9 123.1 138.9 137.5 143.7L205.3 166.2C217.4 157.1 230.6 149.5 244.6 143.4L259.1 73.5zM320.3 400C364.5 399.8 400.2 363.9 400 319.7C399.8 275.5 363.9 239.8 319.7 240C275.5 240.2 239.8 276.1 240 320.3C240.2 364.5 276.1 400.2 320.3 400z"
       id="path2" />
    <g
       aria-label="Msg"
       id="text4"
       style="font-weight:bold;font-size:280px;font-family:ubuntu;text-anchor:middle;fill:#87cefa">
      <path
         d="m 117.28029,205.96 q 5.04,9.24 11.48,22.96 6.72,13.44 13.72,29.4 7.28,15.68 14.28,32.2 7,16.52 13.16,31.08 6.16,-14.56 13.16,-31.08 7,-16.52 14,-32.2 7.28,-15.96 13.72,-29.4 6.72,-13.72 11.76,-22.96 h 39.76 q 2.8,19.32 5.04,43.4 2.52,23.8 4.2,49.84 1.96,25.76 3.36,51.8 1.68,26.04 2.8,49 h -42.56 q -0.84,-28.28 -2.24,-61.6 -1.4,-33.32 -4.2,-67.2 -5.04,11.76 -11.2,26.04 -6.16,14.28 -12.32,28.56 -5.88,14.28 -11.48,27.44 -5.6,12.88 -9.52,22.12 h -30.52 q -3.92,-9.24 -9.52,-22.12 -5.6,-13.16 -11.76,-27.44 -5.88,-14.28 -12.04,-28.56 -6.16,-14.28 -11.2,-26.04 -2.8,33.88 -4.2,67.2 -1.4,33.32 -2.24,61.6 H 60.160291 q 1.12,-22.96 2.52,-49 1.68,-26.04 3.36,-51.8 1.96,-26.04 4.2,-49.84 2.52,-24.08 5.32,-43.4 z"
         id="path14" />
      <path
         d="m 356.40011,370.04 q 11.48,0 16.24,-2.24 4.76,-2.24 4.76,-8.68 0,-5.04 -6.16,-8.68 -6.16,-3.92 -18.76,-8.68 -9.8,-3.64 -17.92,-7.56 -7.84,-3.92 -13.44,-9.24 -5.6,-5.6 -8.68,-13.16 -3.08,-7.56 -3.08,-18.2 0,-20.72 15.4,-32.76 15.4,-12.04 42.28,-12.04 13.44,0 25.76,2.52 12.32,2.24 19.6,5.04 l -7.28,32.48 q -7.28,-2.52 -15.96,-4.48 -8.4,-1.96 -19.04,-1.96 -19.6,0 -19.6,10.92 0,2.52 0.84,4.48 0.84,1.96 3.36,3.92 2.52,1.68 6.72,3.92 4.48,1.96 11.2,4.48 13.72,5.04 22.68,10.08 8.96,4.76 14,10.64 5.32,5.6 7.28,12.6 2.24,7 2.24,16.24 0,21.84 -16.52,33.04 -16.24,11.2 -46.2,11.2 -19.6,0 -32.76,-3.36 -12.88,-3.36 -17.92,-5.6 l 7,-33.88 q 10.64,4.2 21.84,6.72 11.2,2.24 22.12,2.24 z"
         id="path16" />
      <path
         d="m 485.47976,321.6 q 0,35 28.28,35 6.44,0 12.04,-1.68 5.6,-1.68 9.52,-3.92 v -66.64 q -3.08,-0.56 -7.28,-0.84 -4.2,-0.56 -9.8,-0.56 -16.52,0 -24.64,10.92 -8.12,10.92 -8.12,27.72 z m 91.56,59.92 q 0,36.12 -18.48,53.48 -18.2,17.64 -56.56,17.64 -13.44,0 -26.88,-2.52 -13.44,-2.24 -24.92,-6.16 l 7.28,-35 q 9.8,3.92 20.44,6.16 10.92,2.24 24.64,2.24 17.92,0 25.2,-7.84 7.56,-7.84 7.56,-20.16 v -5.32 q -6.72,3.08 -14,4.76 -7,1.4 -15.4,1.4 -30.52,0 -46.76,-17.92 -16.24,-18.2 -16.24,-50.68 0,-16.24 5.04,-29.4 5.04,-13.44 14.56,-22.96 9.8,-9.52 23.8,-14.56 14,-5.32 31.64,-5.32 7.56,0 15.4,0.84 8.12,0.56 15.96,1.68 7.84,1.12 14.84,2.8 7.28,1.4 12.88,3.08 z"
         id="path18" />
    </g>
  </g>
</svg>
