<?xml version="1.0" encoding="UTF-8" standalone="no"?>
<svg
   viewBox="0 0 640 640"
   version="1.1"
   id="svg8"
   sodipodi:docname="rmvlpara.svg"
   inkscape:version="1.1.2 (0a00cf5339, 2022-02-04)"
   xmlns:inkscape="http://www.inkscape.org/namespaces/inkscape"
   xmlns:sodipodi="http://sodipodi.sourceforge.net/DTD/sodipodi-0.dtd"
   xmlns="http://www.w3.org/2000/svg"
   xmlns:svg="http://www.w3.org/2000/svg">
  <defs
     id="defs12" />
  <sodipodi:namedview
     id="namedview10"
     pagecolor="#ffffff"
     bordercolor="#666666"
     borderopacity="1.0"
     inkscape:pageshadow="2"
     inkscape:pageopacity="0.0"
     inkscape:pagecheckerboard="0"
     showgrid="false"
     inkscape:zoom="1.2859375"
     inkscape:cx="319.61118"
     inkscape:cy="320"
     inkscape:window-width="1858"
     inkscape:window-height="1010"
     inkscape:window-x="62"
     inkscape:window-y="34"
     inkscape:window-maximized="1"
     inkscape:current-layer="g6" />
  <g
     transform="translate(58, 0)"
     id="g6">
    <path
       fill="#708090"
       d="M259.1 73.5C262.1 58.7 275.2 48 290.4 48L350.2 48C365.4 48 378.5 58.7 381.5 73.5L396 143.5C410.1 149.5 423.3 157.2 435.3 166.3L503.1 143.8C517.5 139 533.3 145 540.9 158.2L570.8 210C578.4 223.2 575.7 239.8 564.3 249.9L511 297.3C511.9 304.7 512.3 312.3 512.3 320C512.3 327.7 511.8 335.3 511 342.7L564.4 390.2C575.8 400.3 578.4 417 570.9 430.1L541 481.9C533.4 495 517.6 501.1 503.2 496.3L435.4 473.8C423.3 482.9 410.1 490.5 396.1 496.6L381.7 566.5C378.6 581.4 365.5 592 350.4 592L290.6 592C275.4 592 262.3 581.3 259.3 566.5L244.9 496.6C230.8 490.6 217.7 482.9 205.6 473.8L137.5 496.3C123.1 501.1 107.3 495.1 99.7 481.9L69.8 430.1C62.2 416.9 64.9 400.3 76.3 390.2L129.7 342.7C128.8 335.3 128.4 327.7 128.4 320C128.4 312.3 128.9 304.7 129.7 297.3L76.3 249.8C64.9 239.7 62.3 223 69.8 209.9L99.7 158.1C107.3 144.9 123.1 138.9 137.5 143.7L205.3 166.2C217.4 157.1 230.6 149.5 244.6 143.4L259.1 73.5zM320.3 400C364.5 399.8 400.2 363.9 400 319.7C399.8 275.5 363.9 239.8 319.7 240C275.5 240.2 239.8 276.1 240 320.3C240.2 364.5 276.1 400.2 320.3 400z"
       id="path2" />
    <g
       aria-label="Para"
       id="text4"
       style="font-weight:bold;font-size:260px;font-family:ubuntu;text-anchor:middle;fill:#ff8c00">
      <path
         d="m 116.42047,217.74 q 40.3,0 61.88,14.3 21.58,14.04 21.58,46.28 0,32.5 -21.84,47.06 -21.84,14.3 -62.4,14.3 h -12.74 V 400 h -40.56 V 222.42 q 13.26,-2.6 28.08,-3.64 14.82,-1.04 26,-1.04 z m 2.6,34.58 q -4.42,0 -8.84,0.26 -4.16,0.26 -7.28,0.52 v 52 h 12.74 q 21.06,0 31.72,-5.72 10.66,-5.72 10.66,-21.32 0,-7.54 -2.86,-12.48 -2.6,-4.94 -7.8,-7.8 -4.94,-3.12 -12.22,-4.16 -7.28,-1.3 -16.12,-1.3 z"
         id="path9086" />
      <path
         d="m 274.24012,372.96 q 5.72,0 10.92,-0.26 5.2,-0.26 8.32,-0.78 v -29.38 q -2.34,-0.52 -7.02,-1.04 -4.68,-0.52 -8.58,-0.52 -5.46,0 -10.4,0.78 -4.68,0.52 -8.32,2.34 -3.64,1.82 -5.72,4.94 -2.08,3.12 -2.08,7.8 0,9.1 5.98,12.74 6.24,3.38 16.9,3.38 z m -3.12,-113.36 q 17.16,0 28.6,3.9 11.44,3.9 18.2,11.18 7.02,7.28 9.88,17.68 2.86,10.4 2.86,23.14 v 80.6 q -8.32,1.82 -23.14,4.16 -14.82,2.6 -35.88,2.6 -13.26,0 -24.18,-2.34 -10.66,-2.34 -18.46,-7.54 -7.8,-5.46 -11.96,-14.04 -4.16,-8.58 -4.16,-21.06 0,-11.96 4.68,-20.28 4.94,-8.32 13,-13.26 8.06,-4.94 18.46,-7.02 10.4,-2.34 21.58,-2.34 7.54,0 13.26,0.78 5.98,0.52 9.62,1.56 v -3.64 q 0,-9.88 -5.98,-15.86 -5.98,-5.98 -20.8,-5.98 -9.88,0 -19.5,1.56 -9.62,1.3 -16.64,3.9 l -4.94,-31.2 q 3.38,-1.04 8.32,-2.08 5.2,-1.3 11.18,-2.08 5.98,-1.04 12.48,-1.56 6.76,-0.78 13.52,-0.78 z"
         id="path9088" />
      <path
         d="m 448.18,297.56 q -5.2,-1.3 -12.22,-2.6 -7.02,-1.56 -15.08,-1.56 -3.64,0 -8.84,0.78 -4.94,0.52 -7.54,1.3 V 400 H 365.76 V 270.52 q 10.4,-3.64 24.44,-6.76 14.3,-3.38 31.72,-3.38 3.12,0 7.54,0.52 4.42,0.26 8.84,1.04 4.42,0.52 8.84,1.56 4.42,0.78 7.54,2.08 z"
         id="path9090" />
      <path
         d="m 525.13969,372.96 q 5.72,0 10.92,-0.26 5.2,-0.26 8.32,-0.78 v -29.38 q -2.34,-0.52 -7.02,-1.04 -4.68,-0.52 -8.58,-0.52 -5.46,0 -10.4,0.78 -4.68,0.52 -8.32,2.34 -3.64,1.82 -5.72,4.94 -2.08,3.12 -2.08,7.8 0,9.1 5.98,12.74 6.24,3.38 16.9,3.38 z m -3.12,-113.36 q 17.16,0 28.6,3.9 11.44,3.9 18.2,11.18 7.02,7.28 9.88,17.68 2.86,10.4 2.86,23.14 v 80.6 q -8.32,1.82 -23.14,4.16 -14.82,2.6 -35.88,2.6 -13.26,0 -24.18,-2.34 -10.66,-2.34 -18.46,-7.54 -7.8,-5.46 -11.96,-14.04 -4.16,-8.58 -4.16,-21.06 0,-11.96 4.68,-20.28 4.94,-8.32 13,-13.26 8.06,-4.94 18.46,-7.02 10.4,-2.34 21.58,-2.34 7.54,0 13.26,0.78 5.98,0.52 9.62,1.56 v -3.64 q 0,-9.88 -5.98,-15.86 -5.98,-5.98 -20.8,-5.98 -9.88,0 -19.5,1.56 -9.62,1.3 -16.64,3.9 l -4.94,-31.2 q 3.38,-1.04 8.32,-2.08 5.2,-1.3 11.18,-2.08 5.98,-1.04 12.48,-1.56 6.76,-0.78 13.52,-0.78 z"
         id="path9092" />
    </g>
  </g>
</svg>
